<svg xmlns="http://www.w3.org/2000/svg" viewBox="0 0 122.88 121" width="122.88" height="121">
  <defs>
    <style>@font-face {
      font-family: 'Montserrat';
      font-style: normal;
      src: url(https://fonts.gstatic.com/s/montserrat/v25/JTUSjIg1_i6t8kCHKm459Wlhyw.woff2) format('woff2');
      unicode-range: U+0000-00FF, U+0131, U+0152-0153, U+02BB-02BC, U+02C6, U+02DA, U+02DC, U+0304, U+0308, U+0329, U+2000-206F, U+2074, U+20AC, U+2122, U+2191, U+2193, U+2212, U+2215, U+FEFF, U+FFFD;
      }</style>
  </defs>
  <path class="cls-1" style="fill: rgb(239, 65, 54); fill-rule: evenodd;" d="M 11.52 3.664 L 111.36 3.664 C 117.711 3.687 122.853 8.147 122.88 13.657 L 122.88 36.86 L 0 36.86 L 0 13.657 C 0.022 8.145 5.167 3.683 11.52 3.664 Z"/>
  <path class="cls-2" style="fill: grey;" d="M 111.36 117.998 L 11.52 117.998 C 5.169 117.97 0.027 112.829 0 106.478 L 0 36.998 L 122.88 36.998 L 122.88 106.458 C 122.869 112.819 117.721 117.976 111.36 117.998 Z"/>
  <path class="cls-3" style="fill:#e6e6e6; fill-rule:evenodd;" d="M 12.75 114.308 L 110.13 114.308 C 115.125 114.286 119.168 110.242 119.19 105.248 L 119.19 36.998 L 3.69 36.998 L 3.69 105.228 C 3.706 110.225 7.753 114.271 12.75 114.288 L 12.75 114.308 Z"/>
  <text style="fill: rgb(255, 255, 255); font-family: Montserrat; font-size: 30px; font-weight: 800; white-space: pre; text-anchor: middle;" x="50%" y="31">MONTH</text>
  <text style="fill: rgb(26, 26, 26); font-family: Montserrat; font-size: 67px; font-weight: 800; white-space: pre; text-anchor: middle;" x="50%" y="99.505">DAY</text>
</svg>