<svg xmlns="http://www.w3.org/2000/svg" xmlns:bx="https://boxy-svg.com" viewBox="0 0 122.88 121" width="122.88" height="121">
  <defs>
    <style bx:fonts="Montserrat">@font-face {
  font-family: 'Montserrat';
  font-style: normal;
  src: url(https://fonts.gstatic.com/s/montserrat/v25/JTUSjIg1_i6t8kCHKm459Wlhyw.woff2) format('woff2');
  unicode-range: U+0000-00FF, U+0131, U+0152-0153, U+02BB-02BC, U+02C6, U+02DA, U+02DC, U+0304, U+0308, U+0329, U+2000-206F, U+2074, U+20AC, U+2122, U+2191, U+2193, U+2212, U+2215, U+FEFF, U+FFFD;
}</style>
  </defs>
  <path class="cls-1" style="fill:#ef4136; fill-rule:evenodd;" d="M 11.52 6.67 L 111.36 6.67 C 117.711 6.697 122.853 11.839 122.88 18.19 L 122.88 44.94 L 0 44.94 L 0 18.19 C 0.022 11.837 5.167 6.692 11.52 6.67 Z"/>
  <path class="cls-2"  style="fill:grey;" d="M111.36,121H11.52A11.57,11.57,0,0,1,0,109.48V40H122.88v69.46A11.56,11.56,0,0,1,111.36,121Z"/>
  <path class="cls-3"  style="fill:#e6e6e6; fill-rule:evenodd;" d="M12.75,117.31h97.38a9.1,9.1,0,0,0,9.06-9.06V40H3.69v68.23a9.09,9.09,0,0,0,9.06,9.06Z"/>
  <text style="fill: rgb(255, 255, 255); font-family: Montserrat; font-size: 30px; font-weight: 800; white-space: pre;" x="24.241" y="35.0">MONTH</text>
  <text style="fill: rgb(26, 26, 26); font-family: Montserrat; font-size: 67px; font-weight: 800; white-space: pre;" x="21.697" y="101.34">DAY</text>
  </svg>